<?xml version="1.0" encoding="UTF-8"?>
<svg id="Layer_2" xmlns="http://www.w3.org/2000/svg" viewBox="0 0 160.35 160.35">
  <defs>
    <style>
      .cls-1 {
        fill: #00d838;
      }

      .cls-2 {
        fill: #1d1d1b;
      }
    </style>
  </defs>
  <g id="Layer_1-2" data-name="Layer_1">
    <circle class="cls-1" cx="80.17" cy="80.17" r="80.17"/>
    <path class="cls-2" d="M111.91,83.1c2.02-4.42,3.16-9.32,3.16-14.5,0-19.27-15.62-34.9-34.9-34.9s-34.9,15.62-34.9,34.9,15.62,34.9,34.9,34.9c7.14,0,13.78-2.15,19.31-5.83-.79,9.97-9.13,17.82-19.31,17.82v15.53c19.27,0,34.9-15.62,34.9-34.9,0,0,.03-8.68-3.15-13.01,0,0,0,0,0,0ZM80.17,87.97c-10.7,0-19.37-8.67-19.37-19.37s8.67-19.37,19.37-19.37,19.37,8.67,19.37,19.37-8.67,19.37-19.37,19.37Z"/>
  </g>
</svg>