<?xml version="1.0" encoding="UTF-8"?>
<svg id="Layer_2" xmlns="http://www.w3.org/2000/svg" viewBox="0 0 430.9 172.98">
  <defs>
    <style>
      .cls-1 {
        fill: #0bd600;
      }

      .cls-2 {
        fill: #00d838;
      }

      .cls-3 {
        fill: #1d1d1b;
      }
    </style>
  </defs>
  <g id="Layer_1-2" data-name="Layer_1">
    <g>
      <g>
        <path class="cls-3" d="M3.04,137.16c2.03-3.59,4.8-6.41,8.3-8.43,3.51-2.03,7.4-3.04,11.68-3.04,5.03,0,9.41,1.21,13.16,3.64,3.75,2.43,6.48,5.87,8.2,10.32h-7.21c-1.28-2.78-3.12-4.92-5.52-6.42-2.4-1.5-5.28-2.25-8.63-2.25s-6.11.75-8.67,2.25c-2.56,1.5-4.56,3.63-6.02,6.38-1.46,2.76-2.18,5.99-2.18,9.69s.73,6.87,2.18,9.62c1.45,2.76,3.46,4.88,6.02,6.38,2.56,1.5,5.45,2.25,8.67,2.25s6.23-.74,8.63-2.22c2.4-1.48,4.24-3.6,5.52-6.38h7.21c-1.72,4.41-4.45,7.82-8.2,10.22-3.75,2.4-8.14,3.6-13.16,3.6-4.28,0-8.17-1-11.68-3.01-3.51-2.01-6.27-4.8-8.3-8.37-2.03-3.57-3.04-7.61-3.04-12.11s1.01-8.54,3.04-12.14Z"/>
        <path class="cls-3" d="M63.87,137.2c1.96-1.15,4.35-1.72,7.18-1.72v6.22h-1.59c-6.75,0-10.12,3.66-10.12,10.98v19.71h-6.02v-36.25h6.02v5.89c1.06-2.07,2.57-3.68,4.53-4.83Z"/>
        <path class="cls-3" d="M110.87,156.51h-28.97c.22,3.57,1.44,6.36,3.67,8.37,2.23,2.01,4.93,3.01,8.1,3.01,2.6,0,4.77-.61,6.52-1.82,1.74-1.21,2.97-2.83,3.67-4.86h6.48c-.97,3.48-2.91,6.32-5.82,8.5-2.91,2.18-6.53,3.27-10.85,3.27-3.44,0-6.52-.77-9.23-2.32-2.71-1.54-4.84-3.74-6.38-6.58-1.54-2.84-2.32-6.14-2.32-9.89s.75-7.03,2.25-9.86c1.5-2.82,3.6-4.99,6.32-6.52,2.71-1.52,5.83-2.28,9.36-2.28s6.48.75,9.13,2.25c2.65,1.5,4.69,3.56,6.12,6.18,1.43,2.62,2.15,5.59,2.15,8.9,0,1.15-.07,2.36-.2,3.64ZM103.32,145.7c-1.02-1.65-2.39-2.91-4.13-3.77-1.74-.86-3.67-1.29-5.79-1.29-3.04,0-5.63.97-7.77,2.91-2.14,1.94-3.36,4.63-3.67,8.07h22.89c0-2.29-.51-4.27-1.52-5.92Z"/>
        <path class="cls-3" d="M119,144.37c1.5-2.8,3.56-4.97,6.18-6.52,2.62-1.54,5.55-2.32,8.77-2.32s5.93.68,8.27,2.05c2.34,1.37,4.08,3.09,5.23,5.16v-6.62h6.09v36.25h-6.09v-6.75c-1.19,2.12-2.97,3.87-5.33,5.26-2.36,1.39-5.1,2.08-8.24,2.08s-6.13-.79-8.73-2.38c-2.6-1.59-4.65-3.81-6.15-6.68-1.5-2.87-2.25-6.13-2.25-9.79s.75-6.96,2.25-9.76ZM145.79,147.05c-1.1-2.03-2.59-3.58-4.47-4.66-1.87-1.08-3.94-1.62-6.18-1.62s-4.3.53-6.15,1.59c-1.85,1.06-3.33,2.6-4.43,4.63-1.1,2.03-1.65,4.41-1.65,7.14s.55,5.19,1.65,7.24c1.1,2.05,2.58,3.62,4.43,4.7,1.85,1.08,3.9,1.62,6.15,1.62s4.31-.54,6.18-1.62c1.87-1.08,3.36-2.65,4.47-4.7,1.1-2.05,1.65-4.44,1.65-7.18s-.55-5.12-1.65-7.14Z"/>
        <path class="cls-3" d="M171.06,141.1v21.37c0,1.76.37,3.01,1.12,3.74.75.73,2.05,1.09,3.9,1.09h4.43v5.09h-5.42c-3.35,0-5.87-.77-7.54-2.32-1.68-1.54-2.51-4.08-2.51-7.61v-21.37h-4.7v-4.96h4.7v-9.13h6.02v9.13h9.46v4.96h-9.46Z"/>
        <path class="cls-3" d="M188,129.06c-.79-.79-1.19-1.76-1.19-2.91s.4-2.12,1.19-2.91c.79-.79,1.76-1.19,2.91-1.19s2.04.4,2.81,1.19c.77.79,1.16,1.76,1.16,2.91s-.39,2.12-1.16,2.91c-.77.79-1.71,1.19-2.81,1.19s-2.12-.4-2.91-1.19ZM193.82,136.14v36.25h-6.02v-36.25h6.02Z"/>
        <path class="cls-3" d="M217.56,166.83l11.25-30.69h6.42l-14.22,36.25h-7.01l-14.22-36.25h6.48l11.31,30.69Z"/>
        <path class="cls-3" d="M274.05,156.51h-28.97c.22,3.57,1.45,6.36,3.67,8.37,2.23,2.01,4.93,3.01,8.1,3.01,2.6,0,4.77-.61,6.51-1.82,1.74-1.21,2.97-2.83,3.67-4.86h6.48c-.97,3.48-2.91,6.32-5.82,8.5-2.91,2.18-6.53,3.27-10.85,3.27-3.44,0-6.52-.77-9.23-2.32-2.71-1.54-4.84-3.74-6.38-6.58-1.54-2.84-2.32-6.14-2.32-9.89s.75-7.03,2.25-9.86c1.5-2.82,3.6-4.99,6.32-6.52,2.71-1.52,5.83-2.28,9.36-2.28s6.48.75,9.13,2.25c2.65,1.5,4.69,3.56,6.12,6.18,1.43,2.62,2.15,5.59,2.15,8.9,0,1.15-.07,2.36-.2,3.64ZM266.51,145.7c-1.02-1.65-2.39-2.91-4.13-3.77-1.74-.86-3.67-1.29-5.79-1.29-3.04,0-5.63.97-7.77,2.91-2.14,1.94-3.36,4.63-3.67,8.07h22.89c0-2.29-.51-4.27-1.52-5.92Z"/>
        <path class="cls-2" d="M281.2,171.59c-.79-.79-1.19-1.76-1.19-2.91s.4-2.12,1.19-2.91c.79-.79,1.76-1.19,2.91-1.19s2.04.4,2.81,1.19c.77.79,1.16,1.76,1.16,2.91s-.39,2.12-1.16,2.91c-.77.79-1.71,1.19-2.81,1.19s-2.12-.4-2.91-1.19Z"/>
      </g>
      <path class="cls-1" d="M32.53,0c23.16,0,40.67,24.21,28.6,48.7-4.45,9.04-16.52,16.35-26.6,16.35H14.47s0,37.65,0,37.65c0,.79-.64,1.44-1.44,1.44H1.44c-.8,0-1.44-.65-1.44-1.44V1.44C0,.65.65,0,1.44,0h31.08ZM34.47,14.47H14.72c-.14,0-.25.11-.25.25v35.41c0,.25.2.45.45.45h17.61c13.52,0,23.57-14.86,14.7-29.15-2.72-4.38-7.6-6.97-12.75-6.97Z"/>
      <path class="cls-1" d="M104.54,39.09c10.44,0,19,8.04,19.82,18.27.07.87-.61,1.61-1.48,1.61h-11.55c-.71,0-1.35-.47-1.5-1.16-.53-2.43-2.7-4.25-5.28-4.25-9.97,0-18.06,8.08-18.06,18.06v31.04c0,.82-.66,1.48-1.48,1.48h-11.51c-.82,0-1.48-.66-1.48-1.48v-62.09c0-.82.66-1.48,1.48-1.48h11.51c.82,0,1.48.66,1.48,1.48v1.35c0,1.14,1.23,1.84,2.23,1.28,4.68-2.61,10.08-4.11,15.83-4.11Z"/>
      <path class="cls-1" d="M195.83,71.61c0,17.96-14.56,32.53-32.53,32.53s-32.53-14.56-32.53-32.53,14.56-32.53,32.53-32.53,32.53,14.56,32.53,32.53ZM181.36,71.61c0-9.97-8.08-18.06-18.06-18.06s-18.06,8.08-18.06,18.06,8.08,18.06,18.06,18.06,18.06-8.08,18.06-18.06Z"/>
      <path class="cls-3" d="M267.25,12.48v90.24c0,.78-.64,1.42-1.42,1.42h-5.22c-.38,0-.74-.15-1.01-.42l-5.19-5.19c-.34-.34-.87-.38-1.27-.11-5.77,3.97-12.89,6.13-20.54,5.65-16.11-1.02-29.21-14.04-30.33-30.14-1.32-19.01,13.72-34.84,32.45-34.84,6.68,0,12.89,2.02,18.06,5.47V12.48c0-.79.64-1.43,1.43-1.43h11.62c.79,0,1.43.64,1.43,1.43ZM252.68,73.45c1.13-11.42-8.39-20.93-19.81-19.8-8.45.84-15.28,7.67-16.12,16.12-1.13,11.42,8.39,20.94,19.81,19.81,8.45-.84,15.28-7.67,16.12-16.12Z"/>
      <path class="cls-3" d="M287.94,37.87c.97,5.1-3.42,9.49-8.52,8.52-2.85-.54-5.14-2.84-5.68-5.68-.97-5.1,3.42-9.48,8.51-8.52,2.85.54,5.15,2.83,5.69,5.68ZM275.01,50.26h11.65c.78,0,1.41.63,1.41,1.41v51.06c0,.78-.63,1.41-1.41,1.41h-11.64c-.78,0-1.42-.63-1.42-1.42v-51.06c0-.78.63-1.4,1.4-1.4Z"/>
      <path class="cls-3" d="M430.9,71.61c0,17.96-14.56,32.53-32.53,32.53s-32.53-14.56-32.53-32.53,14.56-32.53,32.53-32.53,32.53,14.56,32.53,32.53ZM416.43,71.61c0-9.97-8.08-18.06-18.06-18.06s-18.06,8.08-18.06,18.06,8.08,18.06,18.06,18.06,18.06-8.08,18.06-18.06Z"/>
      <circle class="cls-1" cx="280.84" cy="39.29" r="7.99"/>
      <path class="cls-1" d="M356.54,85.13c1.88-4.12,2.94-8.69,2.94-13.51,0-17.96-14.56-32.53-32.53-32.53s-32.53,14.56-32.53,32.53,14.56,32.53,32.53,32.53c6.66,0,12.84-2,18-5.43-.74,9.29-8.51,16.61-18,16.61v14.47c17.96,0,32.53-14.56,32.53-32.53,0,0,.03-8.09-2.94-12.13,0,0,0,0,0,0ZM326.96,89.67c-9.97,0-18.06-8.08-18.06-18.06s8.08-18.06,18.06-18.06,18.06,8.08,18.06,18.06-8.08,18.06-18.06,18.06Z"/>
    </g>
  </g>
</svg>